# xmcd
#
# Track frame offsets: 
#        150
#        37071
#        59395
#        126272
#        145436
#
# Disc length: 3069 seconds
#
# Revision: 0
# Processed by: cddbd v1.5.2PL0 Copyright (c) Steve Scherf et al.
# Submitted via: ExactAudioCopy v1.0b3
#
DISCID=4c0bfb05
DTITLE=Van McCoy - Van McCoy And His Magnificent Movie Machine
DYEAR=1977
DGENRE=Disco
TTITLE0=Medley I - a) Moon River b) Over The Rainbow c) Gone With The W
TTITLE0=ind d) Somewhere
TTITLE1=Medley II - a) Love Theme From A "Star Is Born" (Evergreen) b) 
TTITLE1=Theme From Mahogany (Do You Know Where You're Going To)
TTITLE2=Medley - a) Theme From Shaft b) Lara's Theme From "Doctor Zhiva
TTITLE2=go" c) The Magnificent Seven
TTITLE3=Medley I (Radio Version) - a) Moon River b) Over The Rainbow c)
TTITLE3=Somewhere
TTITLE4=Medley I (Long Version) - a) Moon River b) Over The Rainbow c) 
TTITLE4=Gone With The Wind d) Somewhere
EXTD=
EXTT0=
EXTT1=
EXTT2=
EXTT3=
EXTT4=
PLAYORDER=
